# xmcd
#
# Track frame offsets:
#	150
#	17754
#	31028
#	48271
#	62907
#	75775
#	92103
#	106794
#	120354
#	135241
#	150156
#	165318
#	181361
#	193446
#	207459
#	224789
#	239909
#	252411
#	266431
#	280682
#	296359
#	313097
#	328572
#
# Disc length: 4563 seconds
#
# Revision: 0
# Processed by: cddbd v1.5.2PL0 Copyright (c) Steve Scherf et al.
# Submitted via: EasyCDDAExtractor 16.0.9.1
#
DISCID=3e11d117
DTITLE=Nu Country Traxx Volume 250 CAN
DYEAR=2015
DGENRE=country
TTITLE0=Blake Shelton\n - Sangria\n
TTITLE1=Luke Bryan\n - Games\n
TTITLE2=Jason Aldean\n - Tonight Looks Good On You\n
TTITLE3=Emerson Drive\n - Who We Are\n
TTITLE4=Lady Antebellum\n - Long Stretch Of Love\n
TTITLE5=Dean Brody\n - Upside Down\n
TTITLE6=Florida Georgia Line\n - Sippin' On Fire\n
TTITLE7=Jake Mathews\n - Road and the Radio\n
TTITLE8=Kacey Musgraves\n - Biscuits\n
TTITLE9=Eric Church\n - Like A Wrecking Ball\n
TTITLE10=Jana Kramer\n - I Got The Boy\n
TTITLE11=Gary Allan\n - Hangover Tonight\n
TTITLE12=Drake White\n - It Feels Good\n
TTITLE13=Tim Hicks\n - So Do I\n
TTITLE14=Paul Brandt\n - Nothing\n
TTITLE15=Dallas Smith\n - Lifted\n
TTITLE16=Eli Young Band\n - Turn It On\n
TTITLE17=Dan and Shay\n - Nothin' Like You\n
TTITLE18=John King\n - On Your Lips\n
TTITLE19=Ashley Monroe\n - On To Something Good\n
TTITLE20=Autumn Hill\n - Blame\n
TTITLE21=Jason Benoit\n - Gone Long Gone\n
TTITLE22=RaeLynn\n - For A Boy\n
EXTD=
EXTT0=
EXTT1=
EXTT2=
EXTT3=
EXTT4=
EXTT5=
EXTT6=
EXTT7=
EXTT8=
EXTT9=
EXTT10=
EXTT11=
EXTT12=
EXTT13=
EXTT14=
EXTT15=
EXTT16=
EXTT17=
EXTT18=
EXTT19=
EXTT20=
EXTT21=
EXTT22=
PLAYORDER=
